{
 "accessors": [
  {
   "bufferView": 0,
   "byteOffset": 0,
   "componentType": 5126,
   "count": 2262,
   "max": [
    79.99999237060547,
    169.02255249023438,
    58.345863342285156
   ],
   "min": [
    -79.99999237060547,
    0.0,
    -58.345863342285156
   ],
   "type": "VEC3"
  },
  {
   "bufferView": 1,
   "byteOffset": 0,
   "componentType": 5126,
   "count": 2262,
   "max": [
    1.0,
    1.0,
    1.0
   ],
   "min": [
    -1.0,
    -1.0,
    -1.0
   ],
   "type": "VEC3"
  },
  {
   "bufferView": 2,
   "byteOffset": 0,
   "componentType": 5126,
   "count": 2262,
   "max": [
    0.3269850015640259,
    0.6013889908790588
   ],
   "min": [
    2.2250738585072014e-308,
    2.2250738585072014e-308
   ],
   "type": "VEC2"
  },
  {
   "bufferView": 3,
   "byteOffset": 0,
   "componentType": 5125,
   "count": 2262,
   "max": [
    2261
   ],
   "min": [
    0
   ],
   "type": "SCALAR"
  }
 ],
 "asset": {
  "generator": "Open Asset Import Library (assimp v6.0.e0b52347)",
  "version": "2.0"
 },
 "bufferViews": [
  {
   "buffer": 0,
   "byteLength": 27144,
   "byteOffset": 0,
   "target": 34962
  },
  {
   "buffer": 0,
   "byteLength": 27144,
   "byteOffset": 27144,
   "target": 34962
  },
  {
   "buffer": 0,
   "byteLength": 18096,
   "byteOffset": 54288,
   "target": 34962
  },
  {
   "buffer": 0,
   "byteLength": 9048,
   "byteOffset": 72384,
   "target": 34963
  }
 ],
 "buffers": [
  {
   "byteLength": 81432,
   "uri": "wz_building.bin"
  }
 ],
 "extensions": {
  "SPRINGRTS_geometry": {
   "configVersion": 8,
   "height": 169.024,
   "maxs": [
    80.0,
    169.024,
    58.3456
   ],
   "midpos": [
    0.0,
    84.512,
    0.0
   ],
   "mins": [
    -80.0,
    0.0,
    -58.3456
   ],
   "pieces": [
    {
     "maxs": [
      80.0,
      169.024,
      58.3456
     ],
     "mins": [
      -80.0,
      0.0,
      -58.3456
     ],
     "name": "body",
     "offset": [
      0.0,
      0.0,
      0.0
     ],
     "parent": -1
    }
   ],
   "radius": 130.176,
   "units": "elmos"
  }
 },
 "extensionsRequired": [
  "KHR_texture_basisu"
 ],
 "extensionsUsed": [
  "KHR_texture_basisu",
  "SPRINGRTS_geometry",
  "SPRINGRTS_team_color"
 ],
 "images": [
  {
   "mimeType": "image/ktx2",
   "uri": "page-34-buildings.ktx2"
  },
  {
   "mimeType": "image/ktx2",
   "uri": "page-34_tcmask.ktx2"
  }
 ],
 "materials": [
  {
   "doubleSided": true,
   "extensions": {
    "SPRINGRTS_team_color": {
     "maskTexture": {
      "index": 1
     }
    }
   },
   "name": "page-34-buildings",
   "pbrMetallicRoughness": {
    "baseColorTexture": {
     "index": 0
    },
    "metallicFactor": 0.0
   }
  }
 ],
 "meshes": [
  {
   "primitives": [
    {
     "attributes": {
      "NORMAL": 1,
      "POSITION": 0,
      "TEXCOORD_0": 2
     },
     "indices": 3,
     "material": 0,
     "mode": 4
    }
   ]
  }
 ],
 "nodes": [
  {
   "children": [
    1
   ],
   "name": "PIE_wz_building"
  },
  {
   "mesh": 0,
   "name": "body"
  }
 ],
 "samplers": [
  {},
  {}
 ],
 "scene": 0,
 "scenes": [
  {
   "nodes": [
    0
   ]
  }
 ],
 "textures": [
  {
   "extensions": {
    "KHR_texture_basisu": {
     "source": 0
    }
   },
   "sampler": 0
  },
  {
   "extensions": {
    "KHR_texture_basisu": {
     "source": 1
    }
   },
   "sampler": 1
  }
 ]
}