{
  "accessors": [
    {
      "bufferView": 0,
      "byteOffset": 0,
      "componentType": 5126,
      "count": 444,
      "max": [
        0.6451471447944641,
        1.696203351020813,
        0.4691984951496124
      ],
      "min": [
        -0.6451471447944641,
        2.2250738585072014e-308,
        -0.29324811697006226
      ],
      "type": "VEC3"
    },
    {
      "bufferView": 1,
      "byteOffset": 0,
      "componentType": 5126,
      "count": 444,
      "max": [
        1.0,
        0.9972547888755798,
        1.0
      ],
      "min": [
        -1.0,
        -0.980580747127533,
        -1.0
      ],
      "type": "VEC3"
    },
    {
      "bufferView": 2,
      "byteOffset": 0,
      "componentType": 5126,
      "count": 444,
      "max": [
        0.554714024066925,
        0.9920989871025085
      ],
      "min": [
        2.2250738585072014e-308,
        2.2250738585072014e-308
      ],
      "type": "VEC2"
    },
    {
      "bufferView": 3,
      "byteOffset": 0,
      "componentType": 5125,
      "count": 444,
      "max": [
        443
      ],
      "min": [
        0
      ],
      "type": "SCALAR"
    },
    {
      "bufferView": 4,
      "byteOffset": 0,
      "componentType": 5126,
      "count": 66,
      "max": [
        0.3518984317779541,
        0.7037968635559082,
        2.1113905906677246
      ],
      "min": [
        -0.4105481803417206,
        -0.7037968635559082,
        -0.58649742603302
      ],
      "type": "VEC3"
    },
    {
      "bufferView": 5,
      "byteOffset": 0,
      "componentType": 5126,
      "count": 66,
      "max": [
        1.0,
        0.9570202827453613,
        1.0
      ],
      "min": [
        -0.9977852702140808,
        -0.9696957468986511,
        -0.9970545768737793
      ],
      "type": "VEC3"
    },
    {
      "bufferView": 6,
      "byteOffset": 0,
      "componentType": 5126,
      "count": 66,
      "max": [
        0.09765625,
        0.25
      ],
      "min": [
        0.0,
        0.0
      ],
      "type": "VEC2"
    },
    {
      "bufferView": 7,
      "byteOffset": 0,
      "componentType": 5125,
      "count": 66,
      "max": [
        65
      ],
      "min": [
        0
      ],
      "type": "SCALAR"
    }
  ],
  "asset": {
    "generator": "Open Asset Import Library (assimp v6.0.e0b52347)",
    "version": "2.0"
  },
  "bufferViews": [
    {
      "buffer": 0,
      "byteLength": 5328,
      "byteOffset": 0,
      "target": 34962
    },
    {
      "buffer": 0,
      "byteLength": 5328,
      "byteOffset": 5328,
      "target": 34962
    },
    {
      "buffer": 0,
      "byteLength": 3552,
      "byteOffset": 10656,
      "target": 34962
    },
    {
      "buffer": 0,
      "byteLength": 1776,
      "byteOffset": 14208,
      "target": 34963
    },
    {
      "buffer": 0,
      "byteLength": 792,
      "byteOffset": 15984,
      "target": 34962
    },
    {
      "buffer": 0,
      "byteLength": 792,
      "byteOffset": 16776,
      "target": 34962
    },
    {
      "buffer": 0,
      "byteLength": 528,
      "byteOffset": 17568,
      "target": 34962
    },
    {
      "buffer": 0,
      "byteLength": 264,
      "byteOffset": 18096,
      "target": 34963
    }
  ],
  "buffers": [
    {
      "byteLength": 18360,
      "uri": "wz_cyborg.bin"
    }
  ],
  "extensions": {
    "SPRINGRTS_geometry": {
      "configVersion": 8,
      "height": 2.4,
      "maxs": [
        0.64515,
        1.6962,
        0.4692
      ],
      "midpos": [
        0,
        0.4962,
        -1.1143
      ],
      "mins": [
        -0.64515,
        -0.7038,
        -2.6979
      ],
      "pieces": [
        {
          "maxs": [
            0.64515,
            1.6962,
            0.4692
          ],
          "mins": [
            -0.64515,
            5.865e-07,
            -0.29325
          ],
          "name": "body",
          "offset": [
            0,
            0,
            0
          ],
          "parent": -1
        },
        {
          "maxs": [
            0.3519,
            0.7038,
            2.1114
          ],
          "mins": [
            -0.41055,
            -0.7038,
            -0.5865
          ],
          "name": "gun",
          "offset": [
            0,
            0,
            -2.1114
          ],
          "parent": 0
        },
        {
          "maxs": [
            0,
            0,
            0
          ],
          "mins": [
            0,
            0,
            0
          ],
          "name": "muzzle",
          "offset": [
            0,
            -2.17,
            0
          ],
          "parent": 1
        }
      ],
      "radius": 2.089
    }
  },
  "extensionsRequired": [
    "KHR_texture_basisu"
  ],
  "extensionsUsed": [
    "KHR_texture_basisu",
    "SPRINGRTS_geometry",
    "SPRINGRTS_team_color"
  ],
  "images": [
    {
      "mimeType": "image/ktx2",
      "uri": "page-33-cyborgs.ktx2"
    },
    {
      "mimeType": "image/ktx2",
      "uri": "page-33_tcmask.ktx2"
    },
    {
      "mimeType": "image/ktx2",
      "uri": "page-17-droid-weapons.ktx2"
    },
    {
      "mimeType": "image/ktx2",
      "uri": "page-17_tcmask.ktx2"
    }
  ],
  "materials": [
    {
      "doubleSided": true,
      "extensions": {
        "SPRINGRTS_team_color": {
          "maskTexture": {
            "index": 1
          }
        }
      },
      "name": "page-33-cyborgs",
      "pbrMetallicRoughness": {
        "baseColorTexture": {
          "index": 0
        },
        "metallicFactor": 0.0
      }
    },
    {
      "doubleSided": true,
      "extensions": {
        "SPRINGRTS_team_color": {
          "maskTexture": {
            "index": 3
          }
        }
      },
      "name": "page-17-droid-weapons",
      "pbrMetallicRoughness": {
        "baseColorTexture": {
          "index": 2
        },
        "metallicFactor": 0.0
      }
    }
  ],
  "meshes": [
    {
      "primitives": [
        {
          "attributes": {
            "NORMAL": 1,
            "POSITION": 0,
            "TEXCOORD_0": 2
          },
          "indices": 3,
          "material": 0,
          "mode": 4
        }
      ]
    },
    {
      "primitives": [
        {
          "attributes": {
            "NORMAL": 5,
            "POSITION": 4,
            "TEXCOORD_0": 6
          },
          "indices": 7,
          "material": 1,
          "mode": 4
        }
      ]
    }
  ],
  "nodes": [
    {
      "children": [
        1
      ],
      "name": "PIE_wz_cyborg"
    },
    {
      "children": [
        2
      ],
      "mesh": 0,
      "name": "body"
    },
    {
      "children": [
        3
      ],
      "matrix": [
        1.0,
        0.0,
        -0.0,
        0.0,
        0.0,
        1.0,
        -0.0,
        0.0,
        -0.0,
        -0.0,
        1.0,
        -0.0,
        0.0,
        0.0,
        -2.1113905906677246,
        1.0
      ],
      "mesh": 1,
      "name": "gun"
    },
    {
      "matrix": [
        1.0,
        0.0,
        -0.0,
        0.0,
        0.0,
        1.0,
        -0.0,
        0.0,
        -0.0,
        -0.0,
        1.0,
        -0.0,
        0.0,
        -2.1700403690338135,
        -0.0,
        1.0
      ],
      "name": "muzzle"
    }
  ],
  "samplers": [
    {},
    {},
    {},
    {}
  ],
  "scene": 0,
  "scenes": [
    {
      "nodes": [
        0
      ]
    }
  ],
  "textures": [
    {
      "extensions": {
        "KHR_texture_basisu": {
          "source": 0
        }
      },
      "sampler": 0
    },
    {
      "extensions": {
        "KHR_texture_basisu": {
          "source": 1
        }
      },
      "sampler": 1
    },
    {
      "extensions": {
        "KHR_texture_basisu": {
          "source": 2
        }
      },
      "sampler": 2
    },
    {
      "extensions": {
        "KHR_texture_basisu": {
          "source": 3
        }
      },
      "sampler": 3
    }
  ]
}