{"asset":{"version":"2.0","generator":"pie_to_glb.py (Metalstorm)","extras":{"source":"Warzone 2100 (GPL-2.0-or-later)","parts":["drhbod09.pie","prhltrk3.pie","prhrtrk3.pie","trhcan.pie"],"pipeline":"tools/scripts/pie_to_glb.py"}},"scene":0,"scenes":[{"nodes":[0]}],"nodes":[{"name":"body","mesh":0,"children":[1,2,3],"scale":[0.08173076923076923,0.08173076923076923,0.08173076923076923]},{"name":"tracks_l","mesh":1},{"name":"tracks_r","mesh":2},{"name":"turret","mesh":3,"translation":[0.0,23.0,-35.0],"children":[4]},{"name":"muzzle","translation":[0.0,9.0,-22.0]}],"meshes":[{"name":"body","primitives":[{"attributes":{"POSITION":0,"NORMAL":1,"TEXCOORD_0":2},"material":0}]},{"name":"tracks_l","primitives":[{"attributes":{"POSITION":3,"NORMAL":4,"TEXCOORD_0":5},"material":0}]},{"name":"tracks_r","primitives":[{"attributes":{"POSITION":6,"NORMAL":7,"TEXCOORD_0":8},"material":0}]},{"name":"turret","primitives":[{"attributes":{"POSITION":9,"NORMAL":10,"TEXCOORD_0":11},"material":0}]}],"materials":[{"name":"wz_palette","pbrMetallicRoughness":{"baseColorTexture":{"index":0},"metallicFactor":0.0,"roughnessFactor":0.85},"doubleSided":true}],"accessors":[{"bufferView":0,"componentType":5126,"count":72,"type":"VEC3","min":[-19.0,9.0,-47.0],"max":[19.0,35.0,47.0]},{"bufferView":1,"componentType":5126,"count":72,"type":"VEC3"},{"bufferView":2,"componentType":5126,"count":72,"type":"VEC2"},{"bufferView":3,"componentType":5126,"count":132,"type":"VEC3","min":[21.0,0.0,-42.0],"max":[41.0,26.0,43.0]},{"bufferView":4,"componentType":5126,"count":132,"type":"VEC3"},{"bufferView":5,"componentType":5126,"count":132,"type":"VEC2"},{"bufferView":6,"componentType":5126,"count":132,"type":"VEC3","min":[-40.0,0.0,-42.0],"max":[-20.0,26.0,43.0]},{"bufferView":7,"componentType":5126,"count":132,"type":"VEC3"},{"bufferView":8,"componentType":5126,"count":132,"type":"VEC2"},{"bufferView":9,"componentType":5126,"count":36,"type":"VEC3","min":[-23.0,0.0,-22.0],"max":[20.0,18.0,23.0]},{"bufferView":10,"componentType":5126,"count":36,"type":"VEC3"},{"bufferView":11,"componentType":5126,"count":36,"type":"VEC2"}],"bufferViews":[{"buffer":0,"byteOffset":0,"byteLength":864,"target":34962},{"buffer":0,"byteOffset":864,"byteLength":864,"target":34962},{"buffer":0,"byteOffset":1728,"byteLength":576,"target":34962},{"buffer":0,"byteOffset":2304,"byteLength":1584,"target":34962},{"buffer":0,"byteOffset":3888,"byteLength":1584,"target":34962},{"buffer":0,"byteOffset":5472,"byteLength":1056,"target":34962},{"buffer":0,"byteOffset":6528,"byteLength":1584,"target":34962},{"buffer":0,"byteOffset":8112,"byteLength":1584,"target":34962},{"buffer":0,"byteOffset":9696,"byteLength":1056,"target":34962},{"buffer":0,"byteOffset":10752,"byteLength":432,"target":34962},{"buffer":0,"byteOffset":11184,"byteLength":432,"target":34962},{"buffer":0,"byteOffset":11616,"byteLength":288,"target":34962}],"buffers":[{"byteLength":11904,"uri":"wz_tank.bin"}],"extensionsUsed":["KHR_texture_basisu"],"samplers":[{"magFilter":9728,"minFilter":9728}],"images":[{"uri":"wz_palette.ktx2","mimeType":"image/ktx2"}],"textures":[{"sampler":0,"extensions":{"KHR_texture_basisu":{"source":0}}}]}