{
 "accessors": [
  {
   "bufferView": 0,
   "byteOffset": 0,
   "componentType": 5126,
   "count": 60,
   "max": [
    8.914285659790039,
    15.085714340209961,
    23.314287185668945
   ],
   "min": [
    -9.600000381469727,
    0.0,
    -19.200000762939453
   ],
   "type": "VEC3"
  },
  {
   "bufferView": 1,
   "byteOffset": 0,
   "componentType": 5126,
   "count": 60,
   "max": [
    0.9889364242553711,
    1.0,
    1.0
   ],
   "min": [
    -0.9805806875228882,
    -1.0,
    -0.9883717894554138
   ],
   "type": "VEC3"
  },
  {
   "bufferView": 2,
   "byteOffset": 0,
   "componentType": 5126,
   "count": 60,
   "max": [
    0.24609375,
    0.140625
   ],
   "min": [
    0.0,
    0.0
   ],
   "type": "VEC2"
  },
  {
   "bufferView": 3,
   "byteOffset": 0,
   "componentType": 5125,
   "count": 60,
   "max": [
    59
   ],
   "min": [
    0
   ],
   "type": "SCALAR"
  },
  {
   "bufferView": 4,
   "byteOffset": 0,
   "componentType": 5126,
   "count": 102,
   "max": [
    20.571428298950195,
    14.40000057220459,
    22.628572463989258
   ],
   "min": [
    0.0,
    0.0,
    -21.94285774230957
   ],
   "type": "VEC3"
  },
  {
   "bufferView": 5,
   "byteOffset": 0,
   "componentType": 5126,
   "count": 102,
   "max": [
    1.0,
    1.0,
    0.8137334585189819
   ],
   "min": [
    -1.0,
    -0.7021437287330627,
    -1.0
   ],
   "type": "VEC3"
  },
  {
   "bufferView": 6,
   "byteOffset": 0,
   "componentType": 5126,
   "count": 102,
   "max": [
    0.43931499123573303,
    0.8772150278091431
   ],
   "min": [
    2.2250738585072014e-308,
    2.2250738585072014e-308
   ],
   "type": "VEC2"
  },
  {
   "bufferView": 7,
   "byteOffset": 0,
   "componentType": 5125,
   "count": 102,
   "max": [
    101
   ],
   "min": [
    0
   ],
   "type": "SCALAR"
  },
  {
   "bufferView": 8,
   "byteOffset": 0,
   "componentType": 5126,
   "count": 102,
   "max": [
    -9.600000381469727,
    14.40000057220459,
    22.628572463989258
   ],
   "min": [
    -20.571428298950195,
    0.0,
    -21.94285774230957
   ],
   "type": "VEC3"
  },
  {
   "bufferView": 9,
   "byteOffset": 0,
   "componentType": 5126,
   "count": 102,
   "max": [
    1.0,
    1.0,
    0.8137334585189819
   ],
   "min": [
    -1.0,
    -0.7021437287330627,
    -1.0
   ],
   "type": "VEC3"
  },
  {
   "bufferView": 10,
   "byteOffset": 0,
   "componentType": 5126,
   "count": 102,
   "max": [
    0.43931499123573303,
    0.8772150278091431
   ],
   "min": [
    2.2250738585072014e-308,
    2.2250738585072014e-308
   ],
   "type": "VEC2"
  },
  {
   "bufferView": 11,
   "byteOffset": 0,
   "componentType": 5125,
   "count": 102,
   "max": [
    101
   ],
   "min": [
    0
   ],
   "type": "SCALAR"
  },
  {
   "bufferView": 12,
   "byteOffset": 0,
   "componentType": 5126,
   "count": 36,
   "max": [
    7.5428571701049805,
    6.171428680419922,
    10.285714149475098
   ],
   "min": [
    -8.228571891784668,
    0.0,
    -8.914285659790039
   ],
   "type": "VEC3"
  },
  {
   "bufferView": 13,
   "byteOffset": 0,
   "componentType": 5126,
   "count": 36,
   "max": [
    0.9622505307197571,
    0.9988682270050049,
    0.8000000715255737
   ],
   "min": [
    -0.97325599193573,
    -1.0,
    -0.9938837885856628
   ],
   "type": "VEC3"
  },
  {
   "bufferView": 14,
   "byteOffset": 0,
   "componentType": 5126,
   "count": 36,
   "max": [
    0.09765625,
    0.18359375
   ],
   "min": [
    0.0,
    0.0
   ],
   "type": "VEC2"
  },
  {
   "bufferView": 15,
   "byteOffset": 0,
   "componentType": 5125,
   "count": 36,
   "max": [
    35
   ],
   "min": [
    0
   ],
   "type": "SCALAR"
  }
 ],
 "asset": {
  "generator": "Open Asset Import Library (assimp v6.0.e0b52347)",
  "version": "2.0"
 },
 "bufferViews": [
  {
   "buffer": 0,
   "byteLength": 720,
   "byteOffset": 0,
   "target": 34962
  },
  {
   "buffer": 0,
   "byteLength": 720,
   "byteOffset": 720,
   "target": 34962
  },
  {
   "buffer": 0,
   "byteLength": 480,
   "byteOffset": 1440,
   "target": 34962
  },
  {
   "buffer": 0,
   "byteLength": 240,
   "byteOffset": 1920,
   "target": 34963
  },
  {
   "buffer": 0,
   "byteLength": 1224,
   "byteOffset": 2160,
   "target": 34962
  },
  {
   "buffer": 0,
   "byteLength": 1224,
   "byteOffset": 3384,
   "target": 34962
  },
  {
   "buffer": 0,
   "byteLength": 816,
   "byteOffset": 4608,
   "target": 34962
  },
  {
   "buffer": 0,
   "byteLength": 408,
   "byteOffset": 5424,
   "target": 34963
  },
  {
   "buffer": 0,
   "byteLength": 1224,
   "byteOffset": 5832,
   "target": 34962
  },
  {
   "buffer": 0,
   "byteLength": 1224,
   "byteOffset": 7056,
   "target": 34962
  },
  {
   "buffer": 0,
   "byteLength": 816,
   "byteOffset": 8280,
   "target": 34962
  },
  {
   "buffer": 0,
   "byteLength": 408,
   "byteOffset": 9096,
   "target": 34963
  },
  {
   "buffer": 0,
   "byteLength": 432,
   "byteOffset": 9504,
   "target": 34962
  },
  {
   "buffer": 0,
   "byteLength": 432,
   "byteOffset": 9936,
   "target": 34962
  },
  {
   "buffer": 0,
   "byteLength": 288,
   "byteOffset": 10368,
   "target": 34962
  },
  {
   "buffer": 0,
   "byteLength": 144,
   "byteOffset": 10656,
   "target": 34963
  }
 ],
 "buffers": [
  {
   "byteLength": 10800,
   "uri": "wz_wheeled.bin"
  }
 ],
 "extensions": {
  "SPRINGRTS_geometry": {
   "configVersion": 8,
   "height": 15.0856,
   "maxs": [
    20.5712,
    15.0856,
    23.3144
   ],
   "midpos": [
    0.0,
    7.54288,
    -0.68571
   ],
   "mins": [
    -20.5712,
    0.0,
    -24.6856
   ],
   "pieces": [
    {
     "maxs": [
      8.9144,
      15.0856,
      23.3144
     ],
     "mins": [
      -9.6,
      6.17144,
      -19.2
     ],
     "name": "body",
     "offset": [
      0.0,
      0.0,
      0.0
     ],
     "parent": -1
    },
    {
     "maxs": [
      20.5712,
      14.4,
      22.6288
     ],
     "mins": [
      9.6,
      0.0,
      -21.9432
     ],
     "name": "wheels_l",
     "offset": [
      0.0,
      0.0,
      0.0
     ],
     "parent": 0
    },
    {
     "maxs": [
      -9.6,
      14.4,
      22.6288
     ],
     "mins": [
      -20.5712,
      0.0,
      -21.9432
     ],
     "name": "wheels_r",
     "offset": [
      0.0,
      0.0,
      0.0
     ],
     "parent": 0
    },
    {
     "maxs": [
      7.54288,
      6.17144,
      10.2856
     ],
     "mins": [
      -8.2288,
      0.0,
      -8.9144
     ],
     "name": "turret",
     "offset": [
      0.0,
      6.85712,
      -15.7712
     ],
     "parent": 0
    },
    {
     "maxs": [
      0.0,
      0.0,
      0.0
     ],
     "mins": [
      0.0,
      0.0,
      0.0
     ],
     "name": "muzzle",
     "offset": [
      0.0,
      3.08568,
      -8.9144
     ],
     "parent": 3
    }
   ],
   "radius": 32.4976,
   "units": "elmos"
  }
 },
 "extensionsRequired": [
  "KHR_texture_basisu"
 ],
 "extensionsUsed": [
  "KHR_texture_basisu",
  "SPRINGRTS_geometry",
  "SPRINGRTS_team_color"
 ],
 "images": [
  {
   "mimeType": "image/ktx2",
   "uri": "page-14-droid-hubs.ktx2"
  },
  {
   "mimeType": "image/ktx2",
   "uri": "page-14-droid-hubs_ms_tcmask.ktx2"
  },
  {
   "mimeType": "image/ktx2",
   "uri": "page-16-droid-drives.ktx2"
  },
  {
   "mimeType": "image/ktx2",
   "uri": "page-16_tcmask.ktx2"
  },
  {
   "mimeType": "image/ktx2",
   "uri": "page-17-droid-weapons.ktx2"
  },
  {
   "mimeType": "image/ktx2",
   "uri": "page-17-droid-weapons_ms_tcmask.ktx2"
  }
 ],
 "materials": [
  {
   "doubleSided": true,
   "extensions": {
    "SPRINGRTS_team_color": {
     "maskTexture": {
      "index": 1
     }
    }
   },
   "name": "page-14-droid-hubs",
   "pbrMetallicRoughness": {
    "baseColorTexture": {
     "index": 0
    },
    "metallicFactor": 0.0
   }
  },
  {
   "doubleSided": true,
   "extensions": {
    "SPRINGRTS_team_color": {
     "maskTexture": {
      "index": 3
     }
    }
   },
   "name": "page-16-droid-drives",
   "pbrMetallicRoughness": {
    "baseColorTexture": {
     "index": 2
    },
    "metallicFactor": 0.0
   }
  },
  {
   "doubleSided": true,
   "extensions": {
    "SPRINGRTS_team_color": {
     "maskTexture": {
      "index": 5
     }
    }
   },
   "name": "page-17-droid-weapons",
   "pbrMetallicRoughness": {
    "baseColorTexture": {
     "index": 4
    },
    "metallicFactor": 0.0
   }
  }
 ],
 "meshes": [
  {
   "primitives": [
    {
     "attributes": {
      "NORMAL": 1,
      "POSITION": 0,
      "TEXCOORD_0": 2
     },
     "indices": 3,
     "material": 0,
     "mode": 4
    }
   ]
  },
  {
   "primitives": [
    {
     "attributes": {
      "NORMAL": 5,
      "POSITION": 4,
      "TEXCOORD_0": 6
     },
     "indices": 7,
     "material": 1,
     "mode": 4
    }
   ]
  },
  {
   "primitives": [
    {
     "attributes": {
      "NORMAL": 9,
      "POSITION": 8,
      "TEXCOORD_0": 10
     },
     "indices": 11,
     "material": 1,
     "mode": 4
    }
   ]
  },
  {
   "primitives": [
    {
     "attributes": {
      "NORMAL": 13,
      "POSITION": 12,
      "TEXCOORD_0": 14
     },
     "indices": 15,
     "material": 2,
     "mode": 4
    }
   ]
  }
 ],
 "nodes": [
  {
   "children": [
    1
   ],
   "name": "PIE_wz_wheeled"
  },
  {
   "children": [
    2,
    3,
    4
   ],
   "mesh": 0,
   "name": "body"
  },
  {
   "mesh": 1,
   "name": "wheels_l"
  },
  {
   "mesh": 2,
   "name": "wheels_r"
  },
  {
   "children": [
    5
   ],
   "matrix": [
    1.0,
    0.0,
    -0.0,
    0.0,
    0.0,
    1.0,
    -0.0,
    0.0,
    -0.0,
    -0.0,
    1.0,
    -0.0,
    0.0,
    6.857142925262451,
    -15.771429061889648,
    1.0
   ],
   "mesh": 3,
   "name": "turret"
  },
  {
   "matrix": [
    1.0,
    0.0,
    -0.0,
    0.0,
    0.0,
    1.0,
    -0.0,
    0.0,
    -0.0,
    -0.0,
    1.0,
    -0.0,
    0.0,
    3.085714340209961,
    -8.914285659790039,
    1.0
   ],
   "name": "muzzle"
  }
 ],
 "samplers": [
  {},
  {},
  {},
  {},
  {},
  {}
 ],
 "scene": 0,
 "scenes": [
  {
   "nodes": [
    0
   ]
  }
 ],
 "textures": [
  {
   "extensions": {
    "KHR_texture_basisu": {
     "source": 0
    }
   },
   "sampler": 0
  },
  {
   "extensions": {
    "KHR_texture_basisu": {
     "source": 1
    }
   },
   "sampler": 1
  },
  {
   "extensions": {
    "KHR_texture_basisu": {
     "source": 2
    }
   },
   "sampler": 2
  },
  {
   "extensions": {
    "KHR_texture_basisu": {
     "source": 3
    }
   },
   "sampler": 3
  },
  {
   "extensions": {
    "KHR_texture_basisu": {
     "source": 4
    }
   },
   "sampler": 4
  },
  {
   "extensions": {
    "KHR_texture_basisu": {
     "source": 5
    }
   },
   "sampler": 5
  }
 ]
}